HIERARCHY
ROOT Hips
{
	OFFSET 0.00000 0.00000 0.00000
	CHANNELS 6 Xposition Yposition Zposition Zrotation Yrotation Xrotation 
	JOINT LHipJoint
	{
		OFFSET 0 0 0
		CHANNELS 3 Zrotation Yrotation Xrotation
		JOINT LeftUpLeg
		{
			OFFSET 1.48831 -1.59570 0.95625
			CHANNELS 3 Zrotation Yrotation Xrotation
			JOINT LeftLeg
			{
				OFFSET 2.20856 -6.06797 0.00000
				CHANNELS 3 Zrotation Yrotation Xrotation
				JOINT LeftFoot
				{
					OFFSET 2.62924 -7.22379 0.00000
					CHANNELS 3 Zrotation Yrotation Xrotation
					JOINT LeftToeBase
					{
						OFFSET 0.16802 -0.46163 2.41673
						CHANNELS 3 Zrotation Yrotation Xrotation
						End Site
						{
							OFFSET 0.00000 -0.00000 1.23760
						}
					}
				}
			}
		}
	}
	JOINT RHipJoint
	{
		OFFSET 0 0 0
		CHANNELS 3 Zrotation Yrotation Xrotation
		JOINT RightUpLeg
		{
			OFFSET -1.56796 -1.59570 0.95625
			CHANNELS 3 Zrotation Yrotation Xrotation
			JOINT RightLeg
			{
				OFFSET -2.29239 -6.29829 0.00000
				CHANNELS 3 Zrotation Yrotation Xrotation
				JOINT RightFoot
				{
					OFFSET -2.66963 -7.33475 0.00000
					CHANNELS 3 Zrotation Yrotation Xrotation
					JOINT RightToeBase
					{
						OFFSET -0.18185 -0.49964 2.34359
						CHANNELS 3 Zrotation Yrotation Xrotation
						End Site
						{
							OFFSET -0.00000 -0.00000 1.20477
						}
					}
				}
			}
		}
	}
	JOINT LowerBack
	{
		OFFSET 0 0 0
		CHANNELS 3 Zrotation Yrotation Xrotation
		JOINT Spine
		{
			OFFSET 0.03505 2.15832 -0.34324
			CHANNELS 3 Zrotation Yrotation Xrotation
			JOINT Spine1
			{
				OFFSET -0.01089 2.17963 0.04689
				CHANNELS 3 Zrotation Yrotation Xrotation
				JOINT Neck
				{
					OFFSET 0 0 0
					CHANNELS 3 Zrotation Yrotation Xrotation
					JOINT Neck1
					{
						OFFSET 0.04686 1.69404 0.22159
						CHANNELS 3 Zrotation Yrotation Xrotation
						JOINT Head
						{
							OFFSET 0.00265 1.69305 -0.01513
							CHANNELS 3 Zrotation Yrotation Xrotation
							End Site
							{
								OFFSET -0.00415 1.80215 -0.03034
							}
						}
					}
				}
				JOINT LeftShoulder
				{
					OFFSET 0 0 0
					CHANNELS 3 Zrotation Yrotation Xrotation
					JOINT LeftArm
					{
						OFFSET 3.67184 1.11724 -0.19002
						CHANNELS 3 Zrotation Yrotation Xrotation
						JOINT LeftForeArm
						{
							OFFSET 5.17714 -0.00000 -0.00000
							CHANNELS 3 Zrotation Yrotation Xrotation
							JOINT LeftHand
							{
								OFFSET 3.43679 -0.00000 -0.00000
								CHANNELS 3 Zrotation Yrotation Xrotation
								JOINT LeftFingerBase
								{
									OFFSET 0 0 0
									CHANNELS 3 Zrotation Yrotation Xrotation
									JOINT LeftHandIndex1
									{
										OFFSET 0.57312 -0.00000 -0.00000
										CHANNELS 3 Zrotation Yrotation Xrotation
										End Site
										{
											OFFSET 0.46206 -0.00000 -0.00000
										}
									}
								}
								JOINT LThumb
								{
									OFFSET 0 0 0
									CHANNELS 3 Zrotation Yrotation Xrotation
									End Site
									{
										OFFSET 0.46912 -0.00000 0.46912
									}
								}
							}
						}
					}
				}
				JOINT RightShoulder
				{
					OFFSET 0 0 0
					CHANNELS 3 Zrotation Yrotation Xrotation
					JOINT RightArm
					{
						OFFSET -3.59596 0.95831 -0.26050
						CHANNELS 3 Zrotation Yrotation Xrotation
						JOINT RightForeArm
						{
							OFFSET -5.23908 -0.00000 -0.00000
							CHANNELS 3 Zrotation Yrotation Xrotation
							JOINT RightHand
							{
								OFFSET -3.46485 -0.00000 -0.00000
								CHANNELS 3 Zrotation Yrotation Xrotation
								JOINT RightFingerBase
								{
									OFFSET 0 0 0
									CHANNELS 3 Zrotation Yrotation Xrotation
									JOINT RightHandIndex1
									{
										OFFSET -0.60875 -0.00000 -0.00000
										CHANNELS 3 Zrotation Yrotation Xrotation
										End Site
										{
											OFFSET -0.49079 -0.00000 -0.00000
										}
									}
								}
								JOINT RThumb
								{
									OFFSET 0 0 0
									CHANNELS 3 Zrotation Yrotation Xrotation
									End Site
									{
										OFFSET -0.49829 -0.00000 0.49829
									}
								}
							}
						}
					}
				}
			}
		}
	}
}
MOTION
Frames: 10
Frame Time: .0083333
4.4069 16.0142 -17.2975 -358.9800 -39.4313 4.6052 0.0000 0.0000 0.0000 -29.8557 5.6809 -28.2172 3.3787 11.2842 33.2445 0.9124 -2.9394 -17.3001 0.0927 1.9637 5.4053 0.0000 0.0000 0.0000 8.6140 20.7434 -45.2184 -7.6262 -15.8373 51.2048 -0.1496 -3.7831 -9.6971 -0.6360 5.1023 -14.2005 -2.1644 -1.0654 2.4979 -3.2003 -1.3903 5.0916 -2.1048 -0.7333 3.8202 4.1571 0.8601 5.3354 2.0320 1.7144 -9.7059 -0.1445 0.5792 -4.1184 0.0000 -0.0000 0.0000 -75.6648 -15.3658 35.5242 77.9080 -59.4402 -49.5477 -0.0000 0.0000 -7.4483 17.9300 5.1956 1.6784 -7.1250 0.0000 -0.0000 -7.2867 35.3620 1.7369 0.0000 -0.0000 0.0000 85.1326 -4.6944 46.5151 -57.4709 55.5974 -32.2453 0.0000 0.0000 10.5476 -33.9136 -5.4664 3.6646 7.1250 -0.0000 -0.0000 -6.0901 -36.4994 -1.2789
4.3673 16.0258 -17.2540 -358.9420 -39.4539 4.4510 0.0000 0.0000 0.0000 -29.8623 5.8084 -27.6790 3.3207 11.1969 32.9470 0.9176 -2.7847 -17.3786 0.0842 1.8720 5.1522 0.0000 0.0000 0.0000 8.6711 20.8753 -45.0448 -7.2693 -15.5546 49.8857 -0.1199 -4.1051 -9.3398 -0.5920 4.9259 -13.6973 -2.2161 -1.0633 2.5768 -3.2276 -1.3898 5.1278 -2.1031 -0.7350 3.8143 4.1539 0.8746 5.3309 2.0320 1.7325 -9.6704 -0.1448 0.5893 -4.1046 -0.0000 0.0000 0.0000 -75.8089 -15.2870 35.5302 77.6049 -59.4114 -49.2868 -0.0000 0.0000 -7.3971 18.3081 4.9129 1.6231 -7.1250 0.0000 -0.0000 -6.9418 35.0851 1.7007 -0.0000 0.0000 0.0000 85.1797 -4.6617 46.4818 -57.6563 55.6524 -32.3984 0.0000 0.0000 10.5275 -33.8917 -5.4928 3.6791 7.1250 -0.0000 -0.0000 -6.0726 -36.5295 -1.2708
4.3279 16.0376 -17.2113 -358.9190 -39.4769 4.2979 0.0000 0.0000 0.0000 -29.8508 5.9400 -27.1339 3.2624 11.1082 32.6457 0.9226 -2.6281 -17.4570 0.0751 1.7674 4.8634 0.0000 0.0000 0.0000 8.7557 21.0116 -44.8384 -6.9266 -15.2697 48.5960 -0.0869 -4.4862 -8.9502 -0.5485 4.7444 -13.1810 -2.2582 -1.0607 2.6691 -3.2496 -1.3897 5.1642 -2.1009 -0.7366 3.8008 4.1440 0.8885 5.3336 2.0332 1.7500 -9.6491 -0.1435 0.5989 -4.0973 0.0000 -0.0000 0.0000 -75.9432 -15.1942 35.5427 77.3028 -59.3820 -49.0267 -0.0000 0.0000 -7.3347 18.6908 4.6217 1.5614 -7.1250 0.0000 -0.0000 -6.5946 34.7975 1.6611 0.0000 -0.0000 0.0000 85.2200 -4.6246 46.4599 -57.8538 55.7104 -32.5615 0.0000 0.0000 10.5116 -33.8846 -5.5165 3.6940 7.1250 -0.0000 -0.0000 -6.0675 -36.5575 -1.2655
4.2888 16.0494 -17.1692 -358.8980 -39.5053 4.1441 0.0000 0.0000 0.0000 -29.8347 6.0804 -26.5891 3.2037 11.0177 32.3397 0.9273 -2.4748 -17.5332 0.0655 1.6516 4.5437 0.0000 0.0000 0.0000 8.8513 21.1563 -44.6092 -6.5985 -14.9842 47.3388 -0.0504 -4.9397 -8.5364 -0.5064 4.5618 -12.6629 -2.2970 -1.0558 2.7683 -3.2703 -1.3869 5.1983 -2.0991 -0.7368 3.7812 4.1343 0.9008 5.3434 2.0302 1.7658 -9.6391 -0.1437 0.6074 -4.0955 0.0000 -0.0000 0.0000 -76.0739 -15.0944 35.5561 76.9868 -59.3504 -48.7548 -0.0000 0.0000 -7.2479 19.0676 4.3203 1.4915 -7.1250 0.0000 -0.0000 -6.2538 34.4973 1.6202 0.0000 -0.0000 0.0000 85.2613 -4.5878 46.4450 -58.0499 55.7675 -32.7236 0.0000 0.0000 10.5243 -33.9057 -5.5327 3.7077 7.1250 -0.0000 -0.0000 -6.0861 -36.5781 -1.2663
4.2500 16.0610 -17.1279 -358.8810 -39.5381 3.9972 0.0000 0.0000 0.0000 -29.8149 6.2253 -26.0526 3.1446 10.9256 32.0292 0.9316 -2.3287 -17.6048 0.0558 1.5244 4.1931 0.0000 0.0000 0.0000 8.9551 21.3107 -44.3685 -6.2855 -14.6995 46.1172 -0.0095 -5.4803 -8.1021 -0.4697 4.3955 -12.1920 -2.3343 -1.0490 2.8671 -3.2893 -1.3818 5.2273 -2.0961 -0.7358 3.7565 4.1283 0.9130 5.3597 2.0207 1.7817 -9.6369 -0.1467 0.6159 -4.0977 0.0000 0.0000 0.0000 -76.2002 -14.9881 35.5757 76.6472 -59.3155 -48.4627 -0.0000 0.0000 -7.1261 19.4351 4.0154 1.4154 -7.1250 0.0000 -0.0000 -5.9228 34.1912 1.5779 0.0000 0.0000 0.0000 85.3055 -4.5537 46.4338 -58.2480 55.8247 -32.8874 0.0000 0.0000 10.5556 -33.9363 -5.5369 3.7147 7.1250 -0.0000 -0.0000 -6.1121 -36.5850 -1.2708
4.2116 16.0722 -17.0871 -358.8490 -39.5770 3.8575 0.0000 0.0000 0.0000 -29.8078 6.3663 -25.5332 3.0849 10.8312 31.7129 0.9352 -2.1885 -17.6693 0.0477 1.4089 3.8746 0.0000 0.0000 0.0000 9.0448 21.4779 -44.1360 -5.9896 -14.4182 44.9399 0.0357 -6.1041 -7.6507 -0.4395 4.2537 -11.7915 -2.3788 -1.0403 2.9543 -3.3118 -1.3739 5.2478 -2.0929 -0.7334 3.7296 4.1269 0.9237 5.3784 2.0062 1.7957 -9.6342 -0.1522 0.6236 -4.1001 -0.0000 0.0000 0.0000 -76.3252 -14.8762 35.5960 76.2744 -59.2760 -48.1422 -0.0000 0.0000 -6.9667 19.7916 3.7078 1.3331 -7.1250 0.0000 -0.0000 -5.6033 33.8800 1.5345 -0.0000 0.0000 0.0000 85.3532 -4.5182 46.4218 -58.4524 55.8833 -33.0566 0.0000 0.0000 10.5741 -33.9534 -5.5295 3.7122 7.1250 -0.0000 -0.0000 -6.1264 -36.5771 -1.2750
4.1737 16.0830 -17.0467 -358.8080 -39.6237 3.7245 0.0000 0.0000 0.0000 -29.8098 6.5034 -25.0269 3.0249 10.7353 31.3922 0.9388 -2.0440 -17.7369 0.0401 1.2930 3.5554 0.0000 0.0000 0.0000 9.1251 21.6545 -43.9117 -5.7118 -14.1431 43.8138 0.0851 -6.7939 -7.1785 -0.4185 4.1523 -11.5057 -2.4231 -1.0277 3.0310 -3.3374 -1.3605 5.2623 -2.0932 -0.7282 3.7024 4.1265 0.9324 5.3935 1.9916 1.8067 -9.6264 -0.1577 0.6299 -4.1001 -0.0000 0.0000 0.0000 -76.4628 -14.7694 35.6104 75.8512 -59.2299 -47.7785 -0.0000 0.0000 -6.7621 20.1252 3.3880 1.2406 -7.1250 0.0000 -0.0000 -5.3038 33.5532 1.4940 -0.0000 0.0000 0.0000 85.4054 -4.4828 46.4096 -58.6586 55.9418 -33.2273 0.0000 0.0000 10.5812 -33.9565 -5.5213 3.7071 7.1250 -0.0000 -0.0000 -6.1286 -36.5675 -1.2769
4.1360 16.0932 -17.0067 -358.7530 -39.6706 3.5994 0.0000 0.0000 0.0000 -29.8272 6.6339 -24.5392 2.9645 10.6374 31.0664 0.9424 -1.9050 -17.8032 0.0335 1.1815 3.2484 0.0000 0.0000 0.0000 9.1861 21.8356 -43.7085 -5.4541 -13.8776 42.7493 0.1374 -7.5291 -6.6973 -0.4032 4.0764 -11.2918 -2.4750 -1.0156 3.0914 -3.3666 -1.3472 5.2693 -2.0931 -0.7232 3.6767 4.1276 0.9393 5.4023 1.9773 1.8147 -9.6074 -0.1631 0.6350 -4.0947 0.0000 0.0000 0.0000 -76.6085 -14.6621 35.6153 75.3837 -59.1772 -47.3769 -0.0000 0.0000 -6.5192 20.4415 3.0611 1.1402 -7.1250 0.0000 -0.0000 -5.0205 33.2164 1.4547 0.0000 0.0000 0.0000 85.4558 -4.4435 46.4052 -58.8617 55.9989 -33.3956 0.0000 0.0000 10.5709 -33.9497 -5.5116 3.6997 7.1250 -0.0000 -0.0000 -6.1225 -36.5555 -1.2774
4.0988 16.1028 -16.9669 -358.6970 -39.7157 3.4877 0.0000 0.0000 0.0000 -29.8480 6.7551 -24.0647 2.9042 10.5383 30.7380 0.9462 -1.7549 -17.8769 0.0273 1.0666 2.9322 0.0000 0.0000 0.0000 9.2406 22.0165 -43.5246 -5.2172 -13.6243 41.7527 0.1910 -8.2815 -6.2225 -0.3927 4.0240 -11.1441 -2.5175 -1.0062 3.1367 -3.3973 -1.3368 5.2715 -2.1002 -0.7192 3.6541 4.1263 0.9467 5.4024 1.9673 1.8228 -9.5761 -0.1666 0.6404 -4.0833 0.0000 0.0000 0.0000 -76.7502 -14.5467 35.6114 74.8972 -59.1203 -46.9592 -0.0000 0.0000 -6.2650 20.7448 2.7238 1.0312 -7.1250 0.0000 -0.0000 -4.7496 32.8664 1.4160 0.0000 0.0000 0.0000 85.5064 -4.3980 46.4114 -59.0647 56.0555 -33.5640 0.0000 0.0000 10.5301 -33.9212 -5.5061 3.6921 7.1250 -0.0000 -0.0000 -6.0981 -36.5472 -1.2735
4.0621 16.1119 -16.9273 -358.6360 -39.7534 3.3842 0.0000 0.0000 0.0000 -29.8754 6.8614 -23.5987 2.8440 10.4382 30.4076 0.9506 -1.5933 -17.9592 0.0215 0.9467 2.6022 0.0000 0.0000 0.0000 9.2838 22.1918 -43.3620 -5.0017 -13.3857 40.8298 0.2448 -9.0314 -5.7757 -0.3813 3.9656 -10.9798 -2.5588 -1.0017 3.1683 -3.4275 -1.3325 5.2713 -2.1076 -0.7182 3.6366 4.1251 0.9550 5.3895 1.9549 1.8308 -9.5316 -0.1707 0.6463 -4.0646 -0.0000 0.0000 0.0000 -76.8894 -14.4253 35.5991 74.3894 -59.0589 -46.5235 -0.0000 0.0000 -6.0062 21.0552 2.3747 0.9138 -7.1250 0.0000 -0.0000 -4.4747 32.5024 1.3730 -0.0000 0.0000 0.0000 85.5520 -4.3440 46.4280 -59.2685 56.1118 -33.7331 0.0000 0.0000 10.4602 -33.8563 -5.4840 3.6684 7.1250 -0.0000 -0.0000 -6.0422 -36.5169 -1.2662
